Coordinates
version=1
nRows=8
nColumns=36
inDegrees=yes

Units are S.I. units (second, meters, Newtons, ...)
If the header above contains a line with 'inDegrees', this indicates whether rotational values are in degrees (yes) or radians (no).

endheader
time	pelvis_tilt	pelvis_list	pelvis_rotation	pelvis_tx	pelvis_ty	pelvis_tz	hip_flexion_r	hip_adduction_r	hip_rotation_r	knee_angle_r	knee_angle_r_beta	ankle_angle_r	subtalar_angle_r	mtp_angle_r	hip_flexion_l	hip_adduction_l	hip_rotation_l	knee_angle_l	knee_angle_l_beta	ankle_angle_l	subtalar_angle_l	mtp_angle_l	lumbar_extension	lumbar_bending	lumbar_rotation	arm_flex_r	arm_add_r	arm_rot_r	elbow_flex_r	pro_sup_r	arm_flex_l	arm_add_l	arm_rot_l	elbow_flex_l	pro_sup_l
      0.00000000	     -6.23685849	      0.25556953	      2.22411476	      0.28013629	      1.04501323	     -0.07914940	     -1.62515653	     -1.64929683	     -9.32642804	      0.17601810	      0.00307210	      4.62640481	     -1.27468219	     -4.95632658	      0.91469187	     -1.02710963	      3.11777393	      5.76470295	      0.10061305	      1.69762652	     -8.08062994	     -4.95632658	      2.88033356	     -0.88167591	      0.55276406	     -7.16593784	    -10.88949920	      5.02490518	     28.76866792	     86.24509921	     -1.42135544	    -11.69270792	     15.14148110	     26.09402741	     83.71895095
      0.01666670	     -9.82893456	      0.15878505	      2.58686550	      0.28743516	      1.03879247	     -0.07348369	      1.50012379	     -1.73477572	     -9.86000155	      0.13240594	      0.00231092	      5.90674183	      1.86636642	     -5.52729110	      3.54923213	     -1.08251350	      4.89340446	      4.16559106	      0.07270328	      0.55404205	     -7.55312752	     -5.52729110	      7.12574414	     -1.23366912	      0.17400342	    -11.12576868	    -10.57436262	      7.29327619	     33.53833185	     83.70178041	     -4.44449476	    -11.23480361	     17.35586892	     27.87089638	     81.64159189
      0.03333330	    -11.57321657	      0.31867395	      2.89481252	      0.27982614	      1.03736652	     -0.08046761	      3.15635565	     -2.04643265	     -9.33499717	      0.12280117	      0.00214328	      6.56841050	      1.15537662	     -5.84476382	      5.29811670	     -0.73006754	      5.87107180	      3.69591614	      0.06450591	      0.71330001	     -8.42418933	     -5.84476382	      8.97554400	     -1.69156661	     -0.33538624	    -11.37591160	     -9.68333890	      6.84732119	     33.24061533	     81.32522266	     -3.75032181	    -10.23411463	     17.25831641	     24.93363874	     79.58320360
      0.05000000	    -12.94087053	      0.32140837	      3.14382341	      0.27991019	      1.03403906	     -0.08072587	      4.49100944	     -2.28440877	     -9.02460773	      0.11933813	      0.00208284	      6.85483993	      1.16539853	     -6.14556122	      6.52272124	     -0.64151918	      6.83764517	      3.15593287	      0.05508142	      1.02630849	     -8.28004312	     -6.14556122	     10.49868410	     -1.86418365	     -0.85220924	    -11.51588219	     -9.49542694	      6.17661929	     33.41990092	     79.08797091	     -3.27401892	     -9.71330710	     16.62357436	     23.25773341	     77.69104025
      0.06666670	    -13.75251225	      0.39764930	      3.11832762	      0.28885068	      1.03350255	     -0.07394697	      5.09387541	     -2.41740181	     -8.54621241	      0.11409444	      0.00199132	      7.43601521	      0.80802810	     -6.30771813	      7.20159990	     -0.63939911	      6.85884344	      2.88558093	      0.05036289	      1.84626014	     -7.97635391	     -6.30771813	     11.59043393	     -2.06737077	     -1.23108274	    -11.92628987	     -9.39800038	      5.90765537	     33.67468618	     77.53034056	     -3.63726780	     -9.66644186	     16.09182110	     22.82715916	     76.38120837
      0.08333330	    -14.46850354	      0.33767925	      3.11796362	      0.28096348	      1.03624024	     -0.08011596	      5.74974618	     -2.47463947	     -8.33568118	      0.11165434	      0.00194874	      7.81126651	      0.66416751	     -6.44573396	      7.85027556	     -0.70791370	      6.77197751	      2.45045839	      0.04276857	      2.23332441	     -7.48626575	     -6.44573396	     12.44470180	     -2.03999495	     -1.54761216	    -12.22395443	     -9.45719179	      5.78196063	     34.09693181	     75.98370792	     -3.76956767	     -9.51687028	     15.61226345	     22.76441034	     75.15756815
      0.10000000	    -15.07107351	      0.32026696	      3.10585555	      0.28143423	      1.03507917	     -0.08029954	      6.31173036	     -2.55312507	     -8.18684498	      0.10940665	      0.00190951	      8.03689223	      0.45393020	     -6.56373813	      8.44049491	     -0.72949153	      6.56986303	      2.19665338	      0.03833883	      2.70798968	     -7.12777956	     -6.56373813	     13.22932341	     -2.04453391	     -1.67592430	    -12.51746493	     -9.55290668	      5.93113919	     34.42602123	     74.63512480	     -3.79978935	     -9.33881988	     15.44121427	     22.42493770	     74.37997067
      0.11666670	    -15.53088709	      0.33838750	      3.09413942	      0.28914275	      1.03018705	     -0.07463323	      6.63337201	     -2.59874685	     -8.07141268	      0.10641991	      0.00185738	      8.24739663	      0.20703787	     -6.71524361	      8.84943939	     -0.76148410	      6.21848544	      2.17108801	      0.03789263	      3.45681751	     -6.59987242	     -6.71524361	     13.97692562	     -2.15063481	     -1.81335834	    -12.98044097	     -9.57353412	      6.20749310	     34.88074397	     72.87336453	     -4.26764130	     -9.43960836	     15.41072573	     22.73358134	     73.33294356
